[Header]
FileType HTR
DataType HTRS
FileVersion 1
NumSegments 64
NumFrames 4
DataFrameRate 24
EulerRotationOrder ZYX
CalibrationUnits mm
RotationUnits Degrees
GlobalAxisofGravity Y
BoneLengthAxis Y
ScaleFactor 1.0
[SegmentNames&Hierarchy]
Hips	GLOBAL
Spine	Hips
Spine1	Spine
Spine2	Spine1
Neck	Spine2
Head	Neck
LeftEye	Head
RightEye	Head
LeftShoulder	Spine2
LeftArm	LeftShoulder
LeftForeArm	LeftArm
LeftHand	LeftForeArm
LeftHandThumb1	LeftHand
LeftHandThumb2	LeftHandThumb1
LeftHandThumb3	LeftHandThumb2
LeftHandThumb4	LeftHandThumb3
LeftHandIndex1	LeftHand
LeftHandIndex2	LeftHandIndex1
LeftHandIndex3	LeftHandIndex2
LeftHandIndex4	LeftHandIndex3
LeftHandMiddle1	LeftHand
LeftHandMiddle2	LeftHandMiddle1
LeftHandMiddle3	LeftHandMiddle2
LeftHandMiddle4	LeftHandMiddle3
LeftHandRing1	LeftHand
LeftHandRing2	LeftHandRing1
LeftHandRing3	LeftHandRing2
LeftHandRing4	LeftHandRing3
LeftHandPinky1	LeftHand
LeftHandPinky2	LeftHandPinky1
LeftHandPinky3	LeftHandPinky2
LeftHandPinky4	LeftHandPinky3
RightShoulder	Spine2
RightArm	RightShoulder
RightForeArm	RightArm
RightHand	RightForeArm
RightHandPinky1	RightHand
RightHandPinky2	RightHandPinky1
RightHandPinky3	RightHandPinky2
RightHandPinky4	RightHandPinky3
RightHandRing1	RightHand
RightHandRing2	RightHandRing1
RightHandRing3	RightHandRing2
RightHandRing4	RightHandRing3
RightHandMiddle1	RightHand
RightHandMiddle2	RightHandMiddle1
RightHandMiddle3	RightHandMiddle2
RightHandMiddle4	RightHandMiddle3
RightHandIndex1	RightHand
RightHandIndex2	RightHandIndex1
RightHandIndex3	RightHandIndex2
RightHandIndex4	RightHandIndex3
RightHandThumb1	RightHand
RightHandThumb2	RightHandThumb1
RightHandThumb3	RightHandThumb2
RightHandThumb4	RightHandThumb3
LeftUpLeg	Hips
LeftLeg	LeftUpLeg
LeftFoot	LeftLeg
LeftToeBase	LeftFoot
RightUpLeg	Hips
RightLeg	RightUpLeg
RightFoot	RightLeg
RightToeBase	RightFoot
[BasePosition]
Hips	0	0	0	0	0	0	1
Spine	0	0	0	0	0	0	1
Spine1	0	0	0	0	0	0	1
Spine2	0	0	0	0	0	0	1
Neck	0	0	0	0	0	0	1
Head	0	0	0	0	0	0	1
LeftEye	0	0	0	0	0	0	1
RightEye	0	0	0	0	0	0	1
LeftShoulder	0	0	0	0	0	0	1
LeftArm	0	0	0	0	0	0	1
LeftForeArm	0	0	0	0	0	0	1
LeftHand	0	0	0	0	0	0	1
LeftHandThumb1	0	0	0	0	0	0	1
LeftHandThumb2	0	0	0	0	0	0	1
LeftHandThumb3	0	0	0	0	0	0	1
LeftHandThumb4	0	0	0	0	0	0	1
LeftHandIndex1	0	0	0	0	0	0	1
LeftHandIndex2	0	0	0	0	0	0	1
LeftHandIndex3	0	0	0	0	0	0	1
LeftHandIndex4	0	0	0	0	0	0	1
LeftHandMiddle1	0	0	0	0	0	0	1
LeftHandMiddle2	0	0	0	0	0	0	1
LeftHandMiddle3	0	0	0	0	0	0	1
LeftHandMiddle4	0	0	0	0	0	0	1
LeftHandRing1	0	0	0	0	0	0	1
LeftHandRing2	0	0	0	0	0	0	1
LeftHandRing3	0	0	0	0	0	0	1
LeftHandRing4	0	0	0	0	0	0	1
LeftHandPinky1	0	0	0	0	0	0	1
LeftHandPinky2	0	0	0	0	0	0	1
LeftHandPinky3	0	0	0	0	0	0	1
LeftHandPinky4	0	0	0	0	0	0	1
RightShoulder	0	0	0	0	0	0	1
RightArm	0	0	0	0	0	0	1
RightForeArm	0	0	0	0	0	0	1
RightHand	0	0	0	0	0	0	1
RightHandPinky1	0	0	0	0	0	0	1
RightHandPinky2	0	0	0	0	0	0	1
RightHandPinky3	0	0	0	0	0	0	1
RightHandPinky4	0	0	0	0	0	0	1
RightHandRing1	0	0	0	0	0	0	1
RightHandRing2	0	0	0	0	0	0	1
RightHandRing3	0	0	0	0	0	0	1
RightHandRing4	0	0	0	0	0	0	1
RightHandMiddle1	0	0	0	0	0	0	1
RightHandMiddle2	0	0	0	0	0	0	1
RightHandMiddle3	0	0	0	0	0	0	1
RightHandMiddle4	0	0	0	0	0	0	1
RightHandIndex1	0	0	0	0	0	0	1
RightHandIndex2	0	0	0	0	0	0	1
RightHandIndex3	0	0	0	0	0	0	1
RightHandIndex4	0	0	0	0	0	0	1
RightHandThumb1	0	0	0	0	0	0	1
RightHandThumb2	0	0	0	0	0	0	1
RightHandThumb3	0	0	0	0	0	0	1
RightHandThumb4	0	0	0	0	0	0	1
LeftUpLeg	0	0	0	0	0	0	1
LeftLeg	0	0	0	0	0	0	1
LeftFoot	0	0	0	0	0	0	1
LeftToeBase	0	0	0	0	0	0	1
RightUpLeg	0	0	0	0	0	0	1
RightLeg	0	0	0	0	0	0	1
RightFoot	0	0	0	0	0	0	1
RightToeBase	0	0	0	0	0	0	1
[Hips]
21	1.79889667	613.5113525	432.2697144	44.11660767	1.288455129	-0.6924408674	1.0
22	1.741164804	622.4351196	444.5643311	44.2545929	1.235231638	-0.6307192445	1.0
23	1.74635148	623.0668945	449.9611816	43.24841309	1.2358917	-0.5942841172	1.0
24	1.759144306	622.4061279	452.1637268	40.90337753	1.259435058	-0.5706104636	1.0
[Spine]
21	0	101.8159943	1.315000057	20.1310482	-0.4428561628	1.394045472	1.0
22	0	101.8159943	1.315000057	23.5599308	-0.4444685578	1.313759685	1.0
23	0	101.8159943	1.315000057	26.32587051	-0.4929176867	1.279672027	1.0
24	0	101.8159943	1.315000057	28.0251255	-0.5781568289	1.255964637	1.0
[Spine1]
21	0	100.8349991	-10.00800037	4.245401859	-4.357284706e-05	5.142698501e-05	1.0
22	0	100.8349991	-10.00800037	7.296335697	-4.630074909e-05	4.898546831e-05	1.0
23	0	100.8349991	-10.00800037	9.90861702	-4.852833081e-05	4.677998004e-05	1.0
24	0	100.8349991	-10.00800037	11.80630302	-5.00810238e-05	4.511409134e-05	1.0
[Spine2]
21	0	91	-13.73399925	10.46073723	-4.062873771e-08	3.140027047e-07	1.0
22	0	91	-13.73399925	12.77123737	-5.453168939e-08	3.119260725e-07	1.0
23	0	91	-13.73399925	14.62585068	-6.560838273e-08	3.098204786e-07	1.0
24	0	91	-13.73399925	15.82831669	-7.274272917e-08	3.082283513e-07	1.0
[Neck]
21	0	166.7169952	-25.16200066	-15.40956116	3.996036355e-07	2.505135797e-07	1.0
22	0	166.7169952	-25.16200066	-14.22285271	3.937866779e-07	2.595244553e-07	1.0
23	0	166.7169952	-25.16200066	-12.81616879	3.866246061e-07	2.700484458e-07	1.0
24	0	166.7169952	-25.16200066	-11.24759769	3.782911051e-07	2.815448852e-07	1.0
[Head]
21	0	96.17900085	16.84999847	-13.32765675	-0.09894567728	-0.2246132642	1.0
22	0	96.17900085	16.84999847	-1.952302217	-0.02984364331	-0.2398070842	1.0
23	0	96.17900085	16.84999847	8.826016426	0.0412805751	-0.2360431701	1.0
24	0	96.17900085	16.84999847	17.65611839	0.1018374935	-0.2170889676	1.0
[LeftEye]
21	30.6760006	64.09500122	92.83599854	0	0	0	1.0
22	30.6760006	64.09500122	92.83599854	0	0	0	1.0
23	30.6760006	64.09500122	92.83599854	0	0	0	1.0
24	30.6760006	64.09500122	92.83599854	0	0	0	1.0
[RightEye]
21	-30.6760006	64.09500122	92.83499908	0	0	0	1.0
22	-30.6760006	64.09500122	92.83499908	0	0	0	1.0
23	-30.6760006	64.09500122	92.83499908	0	0	0	1.0
24	-30.6760006	64.09500122	92.83499908	0	0	0	1.0
[LeftShoulder]
21	45.70400238	109.4599991	-26.28000069	-3.267951012	-12.3471384	22.88549614	1.0
22	45.70400238	109.4599991	-26.28000069	-6.543534756	-15.80900574	28.65500259	1.0
23	45.70400238	109.4599991	-26.28000069	-9.992943764	-18.21299171	33.86003876	1.0
24	45.70400238	109.4599991	-26.28000069	-12.68163395	-19.58844566	37.41166306	1.0
[LeftArm]
21	105.923996	-5.24600029	-22.32099915	-31.77060699	-25.67457199	-30.08430672	1.0
22	105.923996	-5.24600029	-22.32099915	-45.33339691	-32.31911469	-16.07888985	1.0
23	105.923996	-5.24600029	-22.32099915	-57.16144943	-32.48369598	-0.7659487724	1.0
24	105.923996	-5.24600029	-22.32099915	-63.12917709	-29.49630356	10.36179161	1.0
[LeftForeArm]
21	278.414978	-0.0009999999311	0	1.034911929e-05	-52.59457779	-0.0002062698768	1.0
22	278.414978	-0.0009999999311	0	6.228730854e-06	-37.27773666	-0.0002087801113	1.0
23	278.414978	-0.0009999999311	0	1.120427896e-05	-22.79005241	-0.0002048599708	1.0
24	278.414978	-0.0009999999311	0	-1.386009717e-05	-10.7692709	-0.0002131349029	1.0
[LeftHand]
21	283.2879944	0	0	-9.261636734	-7.982584953	-3.862999439	1.0
22	283.2879944	0	0	-3.129909039	-7.827173233	-13.9115324	1.0
23	283.2879944	0	0	2.018284082	-6.624848366	-22.59747887	1.0
24	283.2879944	0	0	5.785105705	-5.007447243	-28.91308975	1.0
[LeftHandThumb1]
21	24.6609993	-15.75	26.8239994	9.490298271	4.695907593	-7.431710243	1.0
22	24.6609993	-15.75	26.8239994	11.67015553	6.078240395	-10.47662449	1.0
23	24.6609993	-15.75	26.8239994	13.39353848	7.158527851	-13.17618084	1.0
24	24.6609993	-15.75	26.8239994	14.39958191	7.773969173	-14.99014187	1.0
[LeftHandThumb2]
21	32.29800034	-18.64699936	18.64699936	77.75702667	52.26524734	57.39675903	1.0
22	32.29800034	-18.64699936	18.64699936	79.31447601	52.32558441	58.74402237	1.0
23	32.29800034	-18.64699936	18.64699936	79.36217499	52.32668304	58.78531265	1.0
24	32.29800034	-18.64699936	18.64699936	77.16088104	52.23609543	56.88131714	1.0
[LeftHandThumb3]
21	26.52600098	-15.31499958	15.31499958	27.75126266	37.54291916	29.88035202	1.0
22	26.52600098	-15.31499958	15.31499958	23.06999779	33.67562103	27.17525482	1.0
23	26.52600098	-15.31499958	15.31499958	19.04896355	29.67215729	24.95147133	1.0
24	26.52600098	-15.31499958	15.31499958	15.7259407	25.77528191	23.15512466	1.0
[LeftHandThumb4]
21	19.54599953	-11.28499985	11.28499985	0	0	0	1.0
22	19.54599953	-11.28499985	11.28499985	0	0	0	1.0
23	19.54599953	-11.28499985	11.28499985	0	0	0	1.0
24	19.54599953	-11.28499985	11.28499985	0	0	0	1.0
[LeftHandIndex1]
21	91.09299469	-5.170999527	22.60099792	-6.707101345	21.87508583	-79.79167938	1.0
22	91.09299469	-5.170999527	22.60099792	-6.951205254	22.70041656	-82.28272247	1.0
23	91.09299469	-5.170999527	22.60099792	-7.06567955	23.08395195	-83.45098877	1.0
24	91.09299469	-5.170999527	22.60099792	-6.984313011	22.81191063	-82.62165833	1.0
[LeftHandIndex2]
21	36.76399994	0	0	-2.172973156	4.541172504	-51.12479401	1.0
22	36.76399994	0	0	-1.892717481	4.300893307	-47.49026871	1.0
23	36.76399994	0	0	-1.6160779	4.030570507	-43.68342972	1.0
24	36.76399994	0	0	-1.357817769	3.742183447	-39.87446213	1.0
[LeftHandIndex3]
21	28.83100128	0	0	-0.7281983495	2.823931217	-28.91438293	1.0
22	28.83100128	0	0	-0.7706540227	2.899385691	-29.76467323	1.0
23	28.83100128	0	0	-0.801617384	2.952782154	-30.37097168	1.0
24	28.83100128	0	0	-0.8011710048	2.952018976	-30.36237335	1.0
[LeftHandIndex4]
21	23.92700005	0	0	0	0	0	1.0
22	23.92700005	0	0	0	0	0	1.0
23	23.92700005	0	0	0	0	0	1.0
24	23.92700005	0	0	0	0	0	1.0
[LeftHandMiddle1]
21	95.33399963	0	0	-6.549190044	6.075863361	-74.74881744	1.0
22	95.33399963	0	0	-6.929870605	6.686338425	-78.39602661	1.0
23	95.33399963	0	0	-7.175337791	7.160944462	-80.78961945	1.0
24	95.33399963	0	0	-7.208871365	7.398584366	-81.16307068	1.0
[LeftHandMiddle2]
21	36.98199844	0	0	-3.09223628	5.146283627	-61.97913742	1.0
22	36.98199844	0	0	-2.804331064	4.983016968	-58.71866989	1.0
23	36.98199844	0	0	-2.49393177	4.781379223	-55.07273483	1.0
24	36.98199844	0	0	-2.170840979	4.53945303	-51.09780502	1.0
[LeftHandMiddle3]
21	29.50900078	0	0	-2.325305462	4.659481525	-53.02388382	1.0
22	29.50900078	0	0	-1.779898047	4.19497776	-45.9671402	1.0
23	29.50900078	0	0	-1.30865097	3.682650089	-39.11528397	1.0
24	29.50900078	0	0	-0.938552916	3.174606323	-32.93275452	1.0
[LeftHandMiddle4]
21	28.3390007	0	0	0	0	0	1.0
22	28.3390007	0	0	0	0	0	1.0
23	28.3390007	0	0	0	0	0	1.0
24	28.3390007	0	0	0	0	0	1.0
[LeftHandRing1]
21	91.04499817	-0.4390000105	-18.65100098	-6.548857689	-2.939682961	-72.65792084	1.0
22	91.04499817	-0.4390000105	-18.65100098	-6.769950867	-2.741332054	-74.63833618	1.0
23	91.04499817	-0.4390000105	-18.65100098	-6.867723465	-2.455188751	-75.56705475	1.0
24	91.04499817	-0.4390000105	-18.65100098	-6.777050972	-1.948023796	-74.89167023	1.0
[LeftHandRing2]
21	31.54000092	0	0	-2.20489645	4.566640854	-51.52677536	1.0
22	31.54000092	0	0	-1.819428205	4.232755661	-46.50525284	1.0
23	31.54000092	0	0	-1.458833456	3.859626532	-41.39825439	1.0
24	31.54000092	0	0	-1.14578867	3.473184586	-36.50585938	1.0
[LeftHandRing3]
21	29.37700081	0	0	-1.716223001	4.132631302	-45.09036636	1.0
22	29.37700081	0	0	-1.409641623	3.803221464	-40.66219711	1.0
23	29.37700081	0	0	-1.129858971	3.451587915	-36.24211884	1.0
24	29.37700081	0	0	-0.8906996846	3.099592686	-32.05839157	1.0
[LeftHandRing4]
21	26.47500038	0	0	0	0	0	1.0
22	26.47500038	0	0	0	0	0	1.0
23	26.47500038	0	0	0	0	0	1.0
24	26.47500038	0	0	0	0	0	1.0
[LeftHandPinky1]
21	80.77799988	-4.887000084	-38.06099701	-7.315131187	-18.10207748	-74.92567444	1.0
22	80.77799988	-4.887000084	-38.06099701	-7.434213638	-18.21920395	-75.80595398	1.0
23	80.77799988	-4.887000084	-38.06099701	-7.397655487	-17.82841301	-75.64788055	1.0
24	80.77799988	-4.887000084	-38.06099701	-7.126434803	-16.58174133	-73.90267181	1.0
[LeftHandPinky2]
21	36	0	0	-1.790606976	4.205275059	-46.11348724	1.0
22	36	0	0	-1.17965126	3.518386602	-37.06129456	1.0
23	36	0	0	-0.6863151193	2.746846676	-28.05233765	1.0
24	36	0	0	-0.3609418571	2.021690607	-20.24310112	1.0
[LeftHandPinky3]
21	21.14200211	0	0	-1.545305371	3.955329657	-42.66710663	1.0
22	21.14200211	0	0	-1.526273727	3.93462801	-42.39051437	1.0
23	21.14200211	0	0	-1.508614421	3.915230513	-42.13240051	1.0
24	21.14200211	0	0	-1.455305457	3.855618477	-41.34580994	1.0
[LeftHandPinky4]
21	19.75699997	0	0	0	0	0	1.0
22	19.75699997	0	0	0	0	0	1.0
23	19.75699997	0	0	0	0	0	1.0
24	19.75699997	0	0	0	0	0	1.0
[RightShoulder]
21	-45.70000076	109.4620056	-26.28000069	-3.26799798	12.34712505	-22.88550568	1.0
22	-45.70000076	109.4620056	-26.28000069	-6.543572426	15.80898762	-28.65500259	1.0
23	-45.70000076	109.4620056	-26.28000069	-9.992988586	18.21297264	-33.8600502	1.0
24	-45.70000076	109.4620056	-26.28000069	-12.68169212	19.58840942	-37.41165161	1.0
[RightArm]
21	-105.9280014	-5.248000145	-22.32099915	-31.77040863	25.6746769	30.08459091	1.0
22	-105.9280014	-5.248000145	-22.32099915	-45.3331871	32.31927872	16.07919502	1.0
23	-105.9280014	-5.248000145	-22.32099915	-57.16133881	32.48391342	0.7661867738	1.0
24	-105.9280014	-5.248000145	-22.32099915	-63.12908173	29.49658394	-10.36158943	1.0
[RightForeArm]
21	-278.414978	0	0	-1.160971169e-05	52.59433746	-3.637831469e-06	1.0
22	-278.414978	0	0	-2.27310079e-06	37.27750015	-1.145949591e-05	1.0
23	-278.414978	0	0	-4.885687758e-06	22.78984833	-4.032224297e-06	1.0
24	-278.414978	0	0	3.816956905e-06	10.76905346	-6.977621979e-06	1.0
[RightHand]
21	-283.2879944	0	0.0009999999311	-7.973936081	7.953347206	4.629929543	1.0
22	-283.2879944	0	0.0009999999311	-1.845832467	7.716962337	14.67053032	1.0
23	-283.2879944	0	0.0009999999311	3.284482956	6.447734356	23.34143829	1.0
24	-283.2879944	0	0.0009999999311	7.028794289	4.782282829	29.64165115	1.0
[RightHandPinky1]
21	-80.76699829	-4.885000229	-38.06000137	-6.307761192	19.27702332	74.11923981	1.0
22	-80.76699829	-4.885000229	-38.06000137	-6.407786369	19.39673805	75.0052948	1.0
23	-80.76699829	-4.885000229	-38.06000137	-6.374291897	19.00551224	74.84733582	1.0
24	-80.76699829	-4.885000229	-38.06000137	-6.139456749	17.75332069	73.09495544	1.0
[RightHandPinky2]
21	-36	0	0.0009999999311	-1.42434454	-3.342735529	46.16807175	1.0
22	-36	0	0.0009999999311	-0.9384766221	-2.796667099	37.11388016	1.0
23	-36	0	0.0009999999311	-0.5459647775	-2.183175325	28.0977726	1.0
24	-36	0	0.0009999999311	-0.2870240808	-1.606475711	20.27870369	1.0
[RightHandPinky3]
21	-21.14200211	0	0	-1.230371833	-3.145205975	42.72155762	1.0
22	-21.14200211	0	0	-1.215235591	-3.128764391	42.44490433	1.0
23	-21.14200211	0	0	-1.201173782	-3.113348246	42.1866951	1.0
24	-21.14200211	0	0	-1.158762217	-3.065970659	41.39992905	1.0
[RightHandPinky4]
21	-19.75699997	0	0	0	0	0	1.0
22	-19.75699997	0	0	0	0	0	1.0
23	-19.75699997	0	0	0	0	0	1.0
24	-19.75699997	0	0	0	0	0	1.0
[RightHandRing1]
21	-91.03599548	-0.4390000105	-18.65100098	-5.578056335	4.108354568	71.89757538	1.0
22	-91.03599548	-0.4390000105	-18.65100098	-5.758452415	3.917034388	73.88114166	1.0
23	-91.03599548	-0.4390000105	-18.65100098	-5.837063313	3.633725882	74.81175995	1.0
24	-91.03599548	-0.4390000105	-18.65100098	-5.760209084	3.124535084	74.13724518	1.0
[RightHandRing2]
21	-31.54000092	0	0	-1.754937768	-3.630963326	51.58000565	1.0
22	-31.54000092	0	0	-1.448419571	-3.365645647	46.55984497	1.0
23	-31.54000092	0	0	-1.161579132	-3.069160938	41.45251083	1.0
24	-31.54000092	0	0	-0.9124832749	-2.761996508	36.55815506	1.0
[RightHandRing3]
21	-29.37700081	0	0	-1.366328359	-3.286099434	45.14500046	1.0
22	-29.37700081	0	0	-1.122454286	-3.024347067	40.71621704	1.0
23	-29.37700081	0	0	-0.8997947574	-2.744836807	36.29425049	1.0
24	-29.37700081	0	0	-0.709434092	-2.465027571	32.10756302	1.0
[RightHandRing4]
21	-26.47500038	0	0	0	0	0	1.0
22	-26.47500038	0	0	0	0	0	1.0
23	-26.47500038	0	0	0	0	0	1.0
24	-26.47500038	0	0	0	0	0	1.0
[RightHandMiddle1]
21	-95.32500458	0	0	-5.535671234	-4.899759293	74.01955414	1.0
22	-95.32500458	0	0	-5.840993404	-5.501168251	77.66069031	1.0
23	-95.32500458	0	0	-6.036694527	-5.972414494	80.04944611	1.0
24	-95.32500458	0	0	-6.062458992	-6.209751606	80.42224121	1.0
[RightHandMiddle2]
21	-36.98199844	0	0	-2.460203648	-4.091395855	62.02446747	1.0
22	-36.98199844	0	0	-2.231428862	-3.961730242	58.76718521	1.0
23	-36.98199844	0	0	-1.984718561	-3.801552296	55.12405396	1.0
24	-36.98199844	0	0	-1.72785151	-3.609344959	51.15122986	1.0
[RightHandMiddle3]
21	-29.50900078	0	0	-1.85068047	-3.70673418	53.07645798	1.0
22	-29.50900078	0	0	-1.416958213	-3.337656975	46.02178955	1.0
23	-29.50900078	0	0	-1.042082787	-2.930519819	39.16883469	1.0
24	-29.50900078	0	0	-0.7475339174	-2.526670218	32.98268127	1.0
[RightHandMiddle4]
21	-28.3390007	0	0.0009999999311	0	0	0	1.0
22	-28.3390007	0	0.0009999999311	0	0	0	1.0
23	-28.3390007	0	0.0009999999311	0	0	0	1.0
24	-28.3390007	0	0.0009999999311	0	0	0	1.0
[RightHandIndex1]
21	-91.08300018	-5.167999744	22.60099792	-5.594126225	-20.68767929	79.07478333	1.0
22	-91.08300018	-5.167999744	22.60099792	-5.783110142	-21.51083565	81.54615784	1.0
23	-91.08300018	-5.167999744	22.60099792	-5.871527195	-21.89411926	82.70462799	1.0
24	-91.08300018	-5.167999744	22.60099792	-5.808691025	-21.62223053	81.88232422	1.0
[RightHandIndex2]
21	-36.76399994	0	0	-1.729553461	-3.610707283	51.17817688	1.0
22	-36.76399994	0	0	-1.506693721	-3.419804811	47.54468918	1.0
23	-36.76399994	0	0	-1.286671758	-3.205020428	43.73800659	1.0
24	-36.76399994	0	0	-1.081195712	-2.975800991	39.92821884	1.0
[RightHandIndex3]
21	-28.83100128	0	0	-0.5800777078	-2.245899677	28.9607029	1.0
22	-28.83100128	0	0	-0.6138746142	-2.305869579	29.81183815	1.0
23	-28.83100128	0	0	-0.6385061145	-2.348297596	30.41871262	1.0
24	-28.83100128	0	0	-0.63816607	-2.347717524	30.41010666	1.0
[RightHandIndex4]
21	-23.92700005	0	0	0	0	0	1.0
22	-23.92700005	0	0	0	0	0	1.0
23	-23.92700005	0	0	0	0	0	1.0
24	-23.92700005	0	0	0	0	0	1.0
[RightHandThumb1]
21	-24.64799881	-15.72700024	26.82600021	8.279888153	-2.784822464	8.383718491	1.0
22	-24.64799881	-15.72700024	26.82600021	10.43107891	-4.167916775	11.51778126	1.0
23	-24.64799881	-15.72700024	26.82600021	12.13429546	-5.24552536	14.28566837	1.0
24	-24.64799881	-15.72700024	26.82600021	13.13127708	-5.85590744	16.1381855	1.0
[RightHandThumb2]
21	-32.29800034	-18.64699936	18.64699936	80.69127655	-53.46747971	-60.40016174	1.0
22	-32.29800034	-18.64699936	18.64699936	82.29721069	-53.49702835	-61.79085541	1.0
23	-32.29800034	-18.64699936	18.64699936	82.34637451	-53.49718857	-61.83345795	1.0
24	-32.29800034	-18.64699936	18.64699936	80.07597351	-53.44992065	-59.86745071	1.0
[RightHandThumb3]
21	-26.52600098	-15.31399918	15.31399918	34.10063171	-41.63078308	-34.63502884	1.0
22	-26.52600098	-15.31399918	15.31399918	28.78907776	-38.05232239	-31.31944847	1.0
23	-26.52600098	-15.31399918	15.31399918	24.24319839	-34.27303696	-28.58947754	1.0
24	-26.52600098	-15.31399918	15.31399918	20.50552177	-30.54349899	-26.39598465	1.0
[RightHandThumb4]
21	-19.54599953	-11.28499985	11.28499985	0	0	0	1.0
22	-19.54599953	-11.28499985	11.28499985	0	0	0	1.0
23	-19.54599953	-11.28499985	11.28499985	0	0	0	1.0
24	-19.54599953	-11.28499985	11.28499985	0	0	0	1.0
[LeftUpLeg]
21	82.07800293	-67.51699829	-15.99599934	-54.27484512	-3.373927832	8.820753098	1.0
22	82.07800293	-67.51699829	-15.99599934	-53.86971664	-2.275617599	8.620646477	1.0
23	82.07800293	-67.51699829	-15.99599934	-52.59667587	-1.17528975	8.485807419	1.0
24	82.07800293	-67.51699829	-15.99599934	-49.95843887	-0.2276419848	8.381128311	1.0
[LeftLeg]
21	0	-443.7049866	2.845999956	93.76424408	10.2950182	-7.143494129	1.0
22	0	-443.7049866	2.845999956	92.6062851	10.1716814	-7.59842062	1.0
23	0	-443.7049866	2.845999956	92.73268127	10.2114439	-7.765410423	1.0
24	0	-443.7049866	2.845999956	93.07822418	10.28813171	-7.857185841	1.0
[LeftFoot]
21	0	-444.2789917	-29.8219986	-54.70984268	4.959146023	3.594494343	1.0
22	0	-444.2789917	-29.8219986	-49.77524948	4.527253151	4.331294537	1.0
23	0	-444.2789917	-29.8219986	-47.46957016	3.682697296	5.477634907	1.0
24	0	-444.2789917	-29.8219986	-46.51848602	2.681738138	7.052696228	1.0
[LeftToeBase]
21	0	-87.28699493	107.1060028	-40.09264755	-8.28509954e-08	6.236815011e-07	1.0
22	0	-87.28699493	107.1060028	-44.10994339	-8.477913411e-07	-8.315089985e-07	1.0
23	0	-87.28699493	107.1060028	-46.46675873	1.228775659e-06	5.667546361e-07	1.0
24	0	-87.28699493	107.1060028	-47.5750885	-1.835268222e-07	2.673617928e-06	1.0
[RightUpLeg]
21	-82.07800293	-67.51699829	-15.99599934	-127.7019119	-5.347775459	-13.05868626	1.0
22	-82.07800293	-67.51699829	-15.99599934	-126.6386414	-5.25962019	-11.77632332	1.0
23	-82.07800293	-67.51699829	-15.99599934	-125.6389771	-5.239581108	-10.41235447	1.0
24	-82.07800293	-67.51699829	-15.99599934	-123.6427841	-5.116632462	-9.016605377	1.0
[RightLeg]
21	0	-443.7049866	2.861999989	79.49358368	-8.828069687	5.513489723	1.0
22	0	-443.7049866	2.861999989	79.73120117	-8.957316399	5.328171253	1.0
23	0	-443.7049866	2.861999989	80.69049835	-9.168850899	4.451312542	1.0
24	0	-443.7049866	2.861999989	81.79740143	-9.318876266	3.149651527	1.0
[RightFoot]
21	0	-444.2770081	-29.83799934	2.938715219	-11.22332478	3.770524025	1.0
22	0	-444.2770081	-29.83799934	1.70471251	-9.841479301	2.817893505	1.0
23	0	-444.2770081	-29.83799934	1.074797511	-7.765333652	1.925287604	1.0
24	0	-444.2770081	-29.83799934	0.6776782274	-5.247301579	1.025277972	1.0
[RightToeBase]
21	0	-87.28699493	107.1060028	-1.515573604e-05	-2.909377805e-08	-1.999551955e-07	1.0
22	0	-87.28699493	107.1060028	-1.515573604e-05	-2.909377805e-08	-1.999551955e-07	1.0
23	0	-87.28699493	107.1060028	-1.515573604e-05	-2.909377805e-08	-1.999551955e-07	1.0
24	0	-87.28699493	107.1060028	-1.515573604e-05	-2.909377805e-08	-1.999551955e-07	1.0
[EndOfFile]
